<?xml version="1.0" encoding="utf-8"?>
<!-- Generator: Adobe Illustrator 24.3.0, SVG Export Plug-In . SVG Version: 6.00 Build 0)  -->
<svg version="1.1" id="TODO" xmlns="http://www.w3.org/2000/svg" xmlns:xlink="http://www.w3.org/1999/xlink" x="0px" y="0px"
	 viewBox="0 0 1000 250" style="enable-background:new 0 0 1000 250;" xml:space="preserve">
<style type="text/css">
	.st0{fill:#0271C4;}
	.st1{fill:#01CBD5;}
	.st2{fill:#444444;}
</style>
<g>
	<path class="st0" d="M626.4,241.8v-51.9H639v51.9H626.4z"/>
	<path class="st0" d="M661,241.8v-42.2h-14.6v-9.7h41.9v9.7h-14.8v42.2H661z"/>
	<path class="st0" d="M708.4,224.7v17h-12.6v-51.9h23.3c6.1,0,10.8,1.4,14.3,4.1c3.5,2.7,5.2,7,5.2,12.8s-1.7,10.2-5.2,13.3
		c-3.5,3.1-8.2,4.7-14.3,4.7H708.4z M708.4,215h9.2c1.3,0,2.5-0.2,3.5-0.5c1-0.4,1.7-0.9,2.3-1.6c0.6-0.7,1-1.5,1.3-2.4
		c0.3-0.9,0.4-1.9,0.4-2.9c0-1.2-0.1-2.3-0.4-3.3c-0.3-0.9-0.7-1.8-1.3-2.5c-0.6-0.7-1.3-1.3-2.3-1.6c-1-0.4-2.1-0.5-3.5-0.5h-9.2
		V215z"/>
	<path class="st1" d="M761.8,243c-2,0-4-0.2-5.8-0.6c-1.9-0.4-3.6-1.1-5.1-2c-1.5-0.9-2.8-2.2-3.7-3.9c-0.9-1.6-1.4-3.7-1.4-6.1
		c0-2.9,0.6-5.3,1.7-7.2c1.1-1.9,2.8-3.3,4.9-4.2c2.1-0.9,4.7-1.4,7.6-1.4c2,0,3.7,0.2,5.3,0.5c1.6,0.3,3,0.7,4.3,1.3
		c1.3,0.5,2.3,1.2,3.2,1.8l0.9,5.4c-1.1-0.8-2.7-1.4-4.6-2c-1.9-0.5-4-0.8-6.2-0.8c-3,0-5.2,0.5-6.7,1.6c-1.5,1-2.3,2.6-2.3,4.7
		c0,1.6,0.4,2.8,1.3,3.8c0.9,1,2,1.7,3.3,2.1c1.3,0.4,2.7,0.7,4.2,0.7c3.1,0,5.3-0.2,6.8-0.6c1.5-0.4,2.2-1.4,2.2-2.9v-16.3
		c0-2.7-0.8-4.8-2.5-6c-1.7-1.3-4-1.9-7.1-1.9c-2.2,0-4.4,0.4-6.8,1.1c-2.3,0.7-4.3,1.7-5.8,2.9v-7.6c1.5-1,3.6-1.8,6.3-2.4
		c2.8-0.6,5.6-0.9,8.6-0.9c1.5,0,2.9,0.1,4.4,0.4c1.5,0.3,2.9,0.7,4.2,1.3c1.3,0.6,2.5,1.4,3.5,2.4c1,1,1.8,2.2,2.4,3.7
		c0.6,1.5,0.9,3.2,0.9,5.1v18.7c0,2.5-0.8,4.5-2.4,5.9c-1.6,1.4-3.7,2.3-6.4,2.8C768.3,242.7,765.2,243,761.8,243z"/>
	<path class="st1" d="M791.3,241.8v-35.5c0.7-0.4,1.9-1,3.7-1.7c1.8-0.7,4-1.4,6.5-1.9c2.5-0.5,5-0.8,7.5-0.8c1.3,0,2.4,0.1,3.2,0.3
		c0.8,0.2,1.5,0.4,2.1,0.7v6.5c-1.2-0.2-2.4-0.3-3.7-0.4c-1.3-0.1-2.6-0.1-3.9,0c-1.3,0.1-2.6,0.2-3.8,0.4c-1.2,0.2-2.4,0.3-3.4,0.5
		v31.9H791.3z"/>
	<path class="st1" d="M836.3,242.8c-3.5,0-6.3-0.9-8.4-2.8c-2-1.9-3.1-4.6-3.1-8.2v-22.3h-6.3v-6.8h6.3v-10.9h8.4v10.9h9.5v6.8h-9.5
		v20.6c0,1.8,0.3,3.2,1,4.1c0.6,0.9,1.9,1.4,3.6,1.4c0.9,0,1.8-0.1,2.6-0.4c0.9-0.2,1.6-0.5,2.3-0.9v7.2c-0.9,0.4-2,0.7-3.2,0.9
		C838.4,242.7,837.3,242.8,836.3,242.8z"/>
	<path class="st1" d="M852.2,205.9c1.1-0.6,2.4-1.1,3.9-1.6c1.4-0.5,2.9-0.9,4.6-1.3c1.6-0.4,3.2-0.6,4.9-0.9
		c1.7-0.2,3.3-0.3,4.8-0.3c3.7,0,6.7,0.5,9,1.5c2.3,1,4.1,2.6,5.2,4.7c1.1,2.1,1.7,4.7,1.7,7.9v25.8h-8.2V217c0-1-0.1-2-0.4-2.9
		c-0.2-1-0.7-1.8-1.3-2.6c-0.6-0.8-1.6-1.4-2.8-1.9c-1.2-0.5-2.8-0.7-4.8-0.7c-1.4,0-2.8,0.1-4.3,0.4c-1.5,0.3-2.9,0.6-4.2,1.1v31.4
		h-8.2V205.9z"/>
	<path class="st1" d="M914.6,243c-3.8,0-7.2-0.8-10-2.3c-2.8-1.6-5-3.9-6.5-6.9c-1.5-3.1-2.3-6.8-2.3-11.2c0-6.8,1.6-11.9,4.8-15.4
		c3.2-3.5,7.6-5.3,13.3-5.3c4.2,0,7.6,0.9,10.2,2.8c2.6,1.9,4.5,4.5,5.6,7.8c1.2,3.3,1.7,7.2,1.7,11.7h-30.7l-0.2-6.1h24.7l-1.9,1.9
		c-0.2-4-1-6.9-2.5-8.8c-1.5-1.8-3.9-2.8-7.1-2.8c-2.1,0-3.8,0.4-5.3,1.3c-1.5,0.9-2.6,2.3-3.3,4.4c-0.8,2.1-1.1,4.9-1.1,8.4
		c0,4.4,1,7.7,3,9.9c2,2.3,5,3.4,8.9,3.4c1.8,0,3.4-0.2,4.9-0.5c1.5-0.3,2.9-0.7,4.2-1.2c1.3-0.5,2.4-1,3.3-1.4v7.5
		c-1.8,0.8-3.9,1.4-6.1,1.9C920,242.7,917.5,243,914.6,243z"/>
	<path class="st1" d="M940.9,241.8v-35.5c0.7-0.4,1.9-1,3.7-1.7c1.8-0.7,4-1.4,6.5-1.9c2.5-0.5,5-0.8,7.5-0.8c1.3,0,2.4,0.1,3.2,0.3
		c0.8,0.2,1.5,0.4,2.1,0.7v6.5c-1.2-0.2-2.4-0.3-3.7-0.4c-1.3-0.1-2.6-0.1-3.9,0c-1.3,0.1-2.6,0.2-3.8,0.4c-1.2,0.2-2.4,0.3-3.4,0.5
		v31.9H940.9z"/>
	<path class="st1" d="M982.9,243c-2.8,0-5.2-0.3-7.1-0.9c-1.9-0.6-3.9-1.3-5.7-2.2v-7.7c1.3,0.8,2.7,1.6,4,2.2
		c1.3,0.6,2.7,1.2,4.1,1.5c1.4,0.4,3,0.5,4.8,0.5c2.2,0,4-0.5,5.3-1.4c1.3-0.9,1.9-2.1,1.9-3.5c0-1.2-0.4-2.1-1.2-2.8
		c-0.8-0.7-1.8-1.2-3.1-1.7c-1.2-0.5-2.5-0.9-3.9-1.4c-1.4-0.4-2.8-0.8-4.2-1.3c-1.4-0.5-2.7-1.2-3.9-2c-1.2-0.9-2.1-2-2.8-3.3
		c-0.7-1.3-1.1-3-1.1-5c0-2.2,0.4-4,1.3-5.6c0.9-1.5,2-2.8,3.5-3.7c1.4-1,3-1.7,4.7-2.1c1.7-0.4,3.4-0.7,5.1-0.7
		c2.7,0.1,5,0.4,6.7,1s3.4,1.4,5.1,2.3l0.1,7c-1.9-1-3.6-1.8-5.3-2.6c-1.7-0.7-3.6-1.1-5.8-1.1c-2,0-3.7,0.4-5.1,1.1
		c-1.4,0.8-2,1.9-2,3.3c0,1.2,0.4,2.2,1.1,3c0.8,0.7,1.7,1.3,3,1.7c1.2,0.4,2.5,0.8,3.9,1.2c1.3,0.4,2.6,0.8,4,1.3
		c1.4,0.4,2.7,1.1,3.9,1.9c1.2,0.8,2.2,1.9,2.9,3.3c0.8,1.3,1.1,3.1,1.1,5.3c-0.1,2.9-0.8,5.3-2.3,7.1c-1.5,1.8-3.4,3.1-5.8,4
		C988,242.5,985.5,243,982.9,243z"/>
</g>
<g>
	<path class="st2" d="M331,138V7.3h21.8V138H331z"/>
	<path class="st2" d="M382.8,47.7c2.9-1.4,6.1-2.8,9.7-4c3.6-1.2,7.4-2.3,11.5-3.2c4-0.9,8.2-1.6,12.3-2.2c4.2-0.5,8.2-0.8,12.1-0.8
		c9.3,0,16.9,1.3,22.7,3.8c5.9,2.5,10.3,6.5,13.1,11.8c2.9,5.3,4.3,11.9,4.3,19.9V138H448V75.7c0-2.5-0.3-4.9-0.9-7.3
		c-0.6-2.4-1.7-4.6-3.3-6.7c-1.6-2-4-3.6-7.1-4.8c-3.1-1.2-7.1-1.8-12.1-1.8c-3.5,0-7.2,0.3-10.9,1c-3.7,0.7-7.2,1.6-10.5,2.7V138
		h-20.6V47.7z"/>
	<path class="st2" d="M497.6,47.7c2.9-1.4,6.1-2.8,9.7-4c3.6-1.2,7.4-2.3,11.5-3.2c4-0.9,8.2-1.6,12.3-2.2c4.2-0.5,8.2-0.8,12.1-0.8
		c9.3,0,16.9,1.3,22.7,3.8c5.9,2.5,10.3,6.5,13.1,11.8c2.9,5.3,4.3,11.9,4.3,19.9V138h-20.6V75.7c0-2.5-0.3-4.9-0.9-7.3
		c-0.6-2.4-1.7-4.6-3.3-6.7c-1.6-2-4-3.6-7.1-4.8c-3.1-1.2-7.1-1.8-12.1-1.8c-3.5,0-7.2,0.3-10.9,1c-3.7,0.7-7.2,1.6-10.5,2.7V138
		h-20.6V47.7z"/>
	<path class="st2" d="M654.6,140.9c-15.9,0-27.8-4.5-35.6-13.5c-7.8-9-11.7-21.9-11.7-38.6c0-17.8,4-30.8,12.1-39.1
		c8-8.3,19.6-12.4,34.8-12.4c10.8,0,19.8,2,26.8,6c7.1,4,12.3,9.8,15.7,17.5c3.4,7.7,5.1,17,5.1,28c0,16.6-4.1,29.4-12.2,38.5
		C681.4,136.4,669.7,140.9,654.6,140.9z M654.4,123.5c6.7,0,12-1.5,15.9-4.4c3.9-2.9,6.8-7,8.5-12.2c1.8-5.2,2.6-11.2,2.6-18
		c0-7.6-0.9-13.9-2.7-19c-1.8-5.1-4.7-8.9-8.6-11.5c-3.9-2.5-9.1-3.8-15.7-3.8c-6.5,0-11.8,1.4-15.7,4.1c-3.9,2.7-6.7,6.7-8.4,11.8
		c-1.7,5.1-2.5,11.2-2.5,18.4c0,10.8,2,19.3,6.1,25.5C637.8,120.4,644.7,123.5,654.4,123.5z"/>
	<path class="st2" d="M751.9,138l-41.3-98.4h21.9l33.7,81.7l-4.9,0.6l31.4-82.3h21.4L772.5,138H751.9z"/>
	<path class="st2" d="M866.2,140.9c-5.1,0-10-0.5-14.7-1.5c-4.7-1-9-2.6-12.8-5c-3.9-2.4-6.9-5.6-9.2-9.7c-2.3-4.1-3.4-9.2-3.4-15.4
		c0-7.3,1.4-13.3,4.3-18c2.9-4.7,7-8.2,12.3-10.6c5.4-2.4,11.8-3.5,19.2-3.5c5,0,9.4,0.4,13.4,1.2c4,0.8,7.6,1.9,10.8,3.2
		c3.2,1.4,5.9,2.9,8.1,4.6l2.2,13.5c-2.9-2-6.7-3.6-11.6-5c-4.8-1.4-10.1-2.1-15.7-2.1c-7.4,0-13.1,1.3-17,3.9
		c-3.9,2.6-5.8,6.5-5.8,11.8c0,3.9,1.1,7.1,3.3,9.5c2.2,2.4,5,4.2,8.3,5.3c3.3,1.1,6.8,1.7,10.5,1.7c7.7,0,13.4-0.5,17-1.6
		c3.7-1,5.5-3.5,5.5-7.3V74.9c0-6.9-2.1-12-6.3-15.2c-4.2-3.2-10.1-4.8-17.8-4.8c-5.5,0-11.2,0.9-17,2.6s-10.7,4.2-14.5,7.3V45.7
		c3.7-2.5,9-4.5,16-6c7-1.5,14.2-2.3,21.7-2.3c3.7,0,7.3,0.4,11.1,1.1c3.7,0.7,7.2,1.8,10.5,3.3c3.3,1.5,6.2,3.5,8.7,6.1
		c2.5,2.5,4.5,5.7,6,9.3c1.4,3.7,2.2,8,2.2,12.9v47c0,6.4-2,11.3-6,14.8c-4,3.5-9.4,5.8-16.2,7.1
		C882.5,140.3,874.8,140.9,866.2,140.9z"/>
	<path class="st2" d="M940.4,138V48.6c1.7-1,4.8-2.5,9.4-4.3c4.6-1.8,10-3.4,16.3-4.8c6.3-1.4,12.6-2.1,19-2.1c3.3,0,5.9,0.3,8,0.8
		c2.1,0.5,3.9,1.1,5.3,1.8v16.5c-3-0.4-6.1-0.7-9.4-0.9c-3.3-0.2-6.5-0.2-9.8,0c-3.3,0.2-6.5,0.5-9.6,0.9c-3.1,0.4-6,0.8-8.6,1.2
		V138H940.4z"/>
</g>
<g>
	<g>
		<path class="st1" d="M123.3,74.4c15.9,1.3,29.8,10.1,38,22.8l35.5,35.5l36.4-36.4C220.5,45,174.2,7,119.1,7
			c-2.6,0-5.2,0.1-7.7,0.3l39.5,39.5L123.3,74.4z"/>
		<path class="st0" d="M68.9,120.3c1.3-15.9,10.1-29.7,22.8-38h0l35.5-35.5L90.8,10.5C39.5,23.1,1.5,69.4,1.5,124.6
			c0,2.6,0.1,5.2,0.3,7.7l39.5-39.5L68.9,120.3z"/>
		<path class="st1" d="M114.8,174.7c-15.9-1.3-29.7-10.1-38-22.8v0l-35.5-35.5L5,152.8c12.6,51.2,58.9,89.2,114.1,89.2
			c2.6,0,5.2-0.1,7.7-0.3l-39.5-39.5L114.8,174.7z"/>
		<path class="st0" d="M236.3,116.9l-39.5,39.5l-27.6-27.6c-1.3,15.9-10.1,29.8-22.8,38L111,202.3l36.4,36.4
			c51.2-12.7,89.2-58.9,89.2-114.1C236.6,122,236.5,119.4,236.3,116.9z"/>
	</g>
	<circle class="st0" cx="119.1" cy="124.6" r="33.6"/>
</g>
</svg>
